<svg width="17" height="15" viewBox="0 0 17 15" fill="none" xmlns="http://www.w3.org/2000/svg">
<path fill-rule="evenodd" clip-rule="evenodd" d="M8.23021 0.264439C8.63861 -0.107351 9.27108 -0.077672 9.64287 0.330728C10.0147 0.739129 9.98498 1.3716 9.57658 1.74339L5.04853 5.86552H15.9978C16.5501 5.86552 16.9978 6.31323 16.9978 6.86552C16.9978 7.4178 16.5501 7.86552 15.9978 7.86552H4.96421L9.59344 12.2791C9.99316 12.6602 10.0083 13.2932 9.62716 13.6929C9.24605 14.0926 8.61307 14.1077 8.21334 13.7266L1.79362 7.60596C1.78162 7.59505 1.76987 7.58386 1.75841 7.57238L0.998494 6.84787L1.79222 6.1253L8.23021 0.264439Z" fill="white"/>
</svg>
