<svg width="17" height="15" viewBox="0 0 17 15" fill="none" xmlns="http://www.w3.org/2000/svg">
<path fill-rule="evenodd" clip-rule="evenodd" d="M9.76613 13.7424C9.35773 14.1142 8.72526 14.0845 8.35347 13.6761C7.98168 13.2677 8.01136 12.6352 8.41976 12.2634L12.9478 8.14132H1.99854C1.44625 8.14132 0.998535 7.6936 0.998535 7.14132C0.998535 6.58904 1.44625 6.14132 1.99854 6.14132H13.0321L8.4029 1.72774C8.00317 1.34663 7.98808 0.713648 8.36918 0.313925C8.75029 -0.0857992 9.38327 -0.100894 9.78299 0.28021L16.2027 6.40088C16.2147 6.41179 16.2265 6.42298 16.2379 6.43445L16.9978 7.15897L16.2041 7.88154L9.76613 13.7424Z" fill="white"/>
</svg>
